<?xml version="1.0" encoding="UTF-8"?>
<svg id="Ebene_1" data-name="Ebene 1" xmlns="http://www.w3.org/2000/svg" version="1.1" viewBox="0 0 574.736 365.407">
  <path d="M189.869,100.149c0,27.015,10.918,51.478,28.591,69.178,17.651,17.684,42.052,28.621,69.043,28.621s51.45-10.947,69.15-28.647c17.7-17.699,28.649-42.153,28.649-69.15s-10.949-51.451-28.649-69.152c-17.7-17.701-42.151-28.65-69.15-28.65s-51.392,10.939-69.043,28.623c-17.672,17.699-28.591,42.164-28.591,69.179h0ZM287.503,0c27.646,0,52.686,11.213,70.816,29.339,18.121,18.125,29.334,43.164,29.334,70.812s-11.213,52.685-29.334,70.811c-18.131,18.126-43.17,29.336-70.816,29.336s-52.621-11.205-70.704-29.318c-18.1-18.128-29.281-43.176-29.281-70.83s11.181-52.704,29.281-70.83C234.882,11.203,259.869,0,287.503,0h0Z" style="fill: #fff; fill-rule: evenodd; stroke-width: 0px;"/>
  <path d="M347.852,55.682c-.359,1.432-1.96,3.896-3.044,5.723-.79,1.332-.081,2.894-.147,4.072-.065,1.048-2.607,2.124-2.582,3.226.01.723,2.613,1.459,2.572,2.185-.071,1.184-2.127,3.796-2.071,4.986.051,1.195,2.208.977,2.37,2.176.146,1.052-1.914,5.893-1.783,6.953.178,1.363,2.548-1.046,2.71.323.081.8-.78,1.809-1.353,2.755.025-.013.056-.026.081-.038-.03.025-.07.05-.101.075-.284.474-.491.932-.456,1.337.111,1.218,2.431,1.972,2.522,3.194.101,1.339-2.492,2.528-2.421,3.877.07,1.348,2.795,2.858,2.826,4.206.035,1.528-2.634,1.961-2.659,3.494-.025,1.53,2.598,4.168,2.512,5.696-.06,1.056-3.763,3.377-3.853,4.433-.097,1.056,3.413.857,3.281,1.91-.162,1.301-2.4,2.604-2.623,3.908-.218,1.303,1.58,2.606,1.296,3.901-.334,1.497-3.068.635-3.489,2.125-.42,1.489,1.474,5.344.952,6.827-.42,1.183-2.76.324-3.241,1.502-1.124,2.723.618,4.695-.187,7.698-.132.498-2.629-.477-3.135.147-.507.627.978,2.854.628,3.453-.517.889-3.109.676-3.672,1.559-.567.884.927,2.9.268,3.743-.714.919-3.054.471-3.839,1.49-.79,1.018-.046,3.498-.901,4.612-.268.346-3.069-1.99-3.352-1.655-.477.563,1.534,3.792,1.017,4.336-.825.874-2.993-.285-3.869.589-.537.523.051,3.696-.486,4.17-1.17,1.043-3.322-1.114-4.477-.276-1.16.837-.521,3.701-1.666,4.351-1.201.68-5.344-1.02-6.528-.538-1.312.538,1.939,3.569.653,3.879-1.124.272-5.363-2.963-6.468-2.852-1.114.113-1.397,3.578-2.481,3.543-1.646-.057-3.591-3.204-5.176-3.559-1.585-.356-2.806,2.091-4.315,1.481-14.54-5.864-26.166-23.96-29.66-30.317-.766-1.395-16.687,31.502-16.687,31.502,0,0-.694-4.676-1.869-5.292-.385-.2,15.447-28.831,14.955-28.582-19.872,9.923-38.475-7.089-39.42-30.346-.04-1.056,1.981-1.564,2.016-2.64.015-.594-1.989-1.761-1.947-2.364.065-.973,2.646-2.408,2.774-3.394.129-.986-2.196-1.532-2.003-2.529.278-1.436,3.804-.248,4.235-1.698.432-1.45-1.123-6.326-.538-7.775.614-1.518,2.673,3.211,3.011,1.544,1.201-5.948.896-5.814.892-8.417-.003-1.31,4.281.634,4.969-.433,1.026-1.586-2.597-6.15-.519-6.504l3.92-.668,1.487-5.635c1.43-1.337,1.934,2.127,3.491.958,1.019-.761,1.783-5.571,2.493-6.047.707-.478,1.362,3.377,2.155,2.299.723-.979,1.69-4.518,2.699-5.089.729-.413,1.465,2.845,2.231,2.487,1.193-.562,3.407-5.615,4.537-7.044,1.857-2.352,3.867,1.85,5.218,1.403,1.228-.671,3.468-4.697,6.353-5.235,1.334-.345-.306,2.803,1.056,2.516,1.533-.327,4.983-4.559,6.546-4.819.56-.094,1.127,2.333,1.697,2.248,1.363-.207,3.85-2.444,5.232-2.607,1.271-.152-.126,1.605,1.155,1.487,1.281-.121,5.242-2.114,6.518-2.2.644-.045.512,1.488,1.16,1.451,1.022-.057,2.841-1.685,3.864-1.727,1.149-.047,1.514,1.175,2.663,1.147,1.474-.037,1.53-1.636,2.983-1.646,1.145-.005,1.23,1.414,2.416,1.43,1.048.015,3.216-1.384,4.279-1.356,1.626.044.121,1.672,1.747,1.739,1.631.063,3.57-1.51,5.136-1.363,1.281.12-1.109,1.329.496,1.418,1.251.068,4.122-1.612,5.353-1.57.962.033.932,1.434,2.294,1.583,1.757.186,4.594-1.408,5.358-1.379.8.031,1.453,1.464,2.253,1.47,1.317.007,2.781-1.439,4.062-1.487,10.423-.418,19.26-2.535,19.265-2.588,0,0-2.892,4.011-4.933,10.537-.228.739,1.494-.284,1.292.519h0ZM287.589,12.509c-48.391,0-87.645,39.254-87.645,87.642.001,48.385,39.252,87.638,87.645,87.638s87.641-39.251,87.641-87.638S335.975,12.509,287.589,12.509h0Z" style="fill: #fff; fill-rule: evenodd; stroke-width: 0px;"/>
  <path d="M281.254,106.689c4.497-6.166,9.324-11.955,14.555-17.252.38-.388.855-.846,1.413-1.362,3.818-1.017,10.393-.997,14.155-1.098,4.355-.119,19.569.455,30.757-10.817-12.955,8.38-21.038,8.601-30.58,8.86-3.605.098-7.409.205-11.755.737,4.25-3.724,10.839-9.139,18.633-15.254,4.168.409,7.8.246,11.396-.435,3.211-.606,6.183-2.007,11.896-5.923-4.442,1.935-8.235,3.3-12.059,4.024-2.847.54-5.733.729-8.949.545,8.245-6.427,17.654-13.498,26.988-20.135-7.343,3.186-12.793,6.856-23.443,15.155l-6.31,4.736c1.261-3.972,2.699-7.939,4.432-10.948,1.925-3.336,2.694-4.238,6.153-7.321-5.404,2.848-6.057,4.098-7.845,6.827-1.849,3.22-3.637,8.703-5.029,13.243-6.802,5.369-12.96,10.529-16.956,14.023,3.196-14.578,6.194-18.531,12.251-26.519,1.398-1.851,2.968-3.921,4.832-6.519-3.637,2.741-5.277,4.096-7.191,6.711-6.473,8.803-8.741,11.215-12.241,28.418-.841.765-1.483,1.366-1.879,1.766-4.918,4.989-9.628,10.339-14.085,16.005-2.152-19.029,3.585-33.328,12.56-52.097-10.995,16.715-17.017,35.056-14.17,54.177-5.446,7.126-10.502,14.726-15.101,22.744-9.322-23.66-5.59-51.758-3.266-67.13-2.11,3.477-3.902,19.146-4.123,22.547-1.029,15.799-.483,33.362,6.261,46.578-.883,1.579-1.75,3.174-2.597,4.784-7.85-4.834-15.189-13.008-20.515-21.67-5.705-9.277-9.083-19.051-8.259-25.778-2.614,11.062,5.408,24.798,6.731,26.95,5.464,8.882,13.011,17.281,21.111,22.286.328.201.661.4.991.594l.045-.099.41.2,1.305.619c2.854,1.91,3.394,1.854,8.981,4.321,5.59,2.468,16.605,5.327,25.873,6.144.37.033,1.276.082,2.583.101.876.017,1.944.022,3.145.004,8.428-.128,23.743-1.374,31.476-7.842-6.762,5.021-28.321,6.925-36.88,6.148-13.391-1.214-25.372-5.219-34.336-10.8.684-1.302,1.887-3.28,2.584-4.564,9.424-.543,25.801-1.609,40.63-4.509,9.967-1.95,33.178-6.067,39.255-18.061-7.308,8.035-22.755,12.954-38.556,15.987-15.487,2.973-31.27,4.12-40.25,4.62,4.263-7.704,8.809-15.092,13.743-22.021,10.281.861,22.446-.86,32.849-4.158,12.569-3.987,24.102-10.104,31.633-16.115l.019-.037c-7.171,3.401-22.435,11.504-32.356,14.429-10.226,3.011-21.008,5.026-30.914,4.181h0Z" style="fill: #fff; fill-rule: evenodd; stroke-width: 0px;"/>
  <path d="M82.899,331.303h1.512c.108,1.549.45,3.024,1.026,4.429.575,1.403,1.358,2.646,2.349,3.726.99,1.08,2.142,1.936,3.456,2.565,1.314.63,2.763.944,4.347.944,1.115,0,2.205-.144,3.267-.432,1.062-.288,2.016-.747,2.862-1.377.846-.63,1.521-1.412,2.025-2.349.504-.937.756-2.053.756-3.349,0-1.728-.513-3.113-1.539-4.158-1.026-1.043-2.322-1.943-3.888-2.699-1.566-.757-3.249-1.449-5.049-2.079-1.801-.63-3.483-1.395-5.049-2.295-1.566-.899-2.862-2.034-3.888-3.402s-1.539-3.167-1.539-5.4c0-1.728.333-3.248.999-4.562.666-1.313,1.566-2.43,2.7-3.348,1.134-.918,2.438-1.611,3.915-2.079,1.476-.468,3.006-.702,4.59-.702,1.62,0,3.321.216,5.103.647,1.782.433,3.41.991,4.887,1.675l.324,8.478h-1.458c-1.296-6.083-4.447-9.126-9.45-9.126-.937,0-1.854.127-2.754.378-.9.252-1.692.64-2.376,1.161-.684.522-1.233,1.18-1.647,1.971-.415.793-.621,1.729-.621,2.809,0,1.224.297,2.24.891,3.051.594.81,1.377,1.521,2.349,2.133.972.612,2.069,1.152,3.294,1.62,1.223.468,2.484.954,3.78,1.458,1.296.505,2.556,1.071,3.78,1.701,1.223.63,2.322,1.403,3.294,2.321.972.918,1.755,2.017,2.349,3.295.594,1.277.891,2.816.891,4.616,0,1.836-.387,3.483-1.161,4.941-.775,1.458-1.801,2.691-3.078,3.699-1.278,1.008-2.727,1.773-4.347,2.295s-3.258.783-4.914.783c-2.017,0-3.942-.172-5.778-.514s-3.78-.98-5.832-1.917l-.378-10.908Z" style="fill: #fff; stroke-width: 0px;"/>
  <path d="M111.033,354.523h4.806v-35.641h-4.536v-1.35h10.044v3.942h.108c.828-1.729,1.89-2.925,3.186-3.592,1.296-.665,2.844-.999,4.644-.999,1.439,0,2.781.262,4.023.783,1.242.522,2.322,1.332,3.24,2.431.918,1.098,1.638,2.529,2.16,4.293.521,1.764.783,3.888.783,6.371,0,1.837-.181,3.601-.54,5.292-.36,1.693-.972,3.178-1.836,4.455-.864,1.278-2.007,2.295-3.429,3.052-1.422.756-3.177,1.115-5.265,1.08-1.548,0-2.943-.298-4.185-.892-1.242-.594-2.169-1.539-2.781-2.835h-.108v13.608h4.644v1.35h-14.958v-1.35ZM121.185,332.653c0,1.188.072,2.385.216,3.591.144,1.207.45,2.313.918,3.321.467,1.008,1.115,1.827,1.944,2.457.828.63,1.925.944,3.294.944,2.196,0,3.762-1.062,4.698-3.186.936-2.124,1.404-5.13,1.404-9.019,0-1.728-.081-3.338-.243-4.833-.162-1.493-.468-2.78-.918-3.86-.45-1.08-1.071-1.935-1.863-2.565-.792-.629-1.818-.944-3.078-.944-.612,0-1.288.126-2.025.378-.738.252-1.431.738-2.079,1.458-.648.721-1.188,1.71-1.62,2.97-.432,1.261-.648,2.881-.648,4.86v4.428Z" style="fill: #fff; stroke-width: 0px;"/>
  <path d="M155.421,328.387c1.115-.287,2.124-.558,3.024-.81.899-.251,1.872-.558,2.916-.918v-2.268c0-.937-.054-1.782-.162-2.538-.108-.757-.315-1.404-.621-1.944-.306-.54-.729-.953-1.269-1.242-.54-.287-1.26-.432-2.16-.432-1.369,0-2.466.288-3.294.864-.829.576-1.242,1.746-1.242,3.51,0,1.044-.216,1.773-.648,2.187-.432.414-1.116.621-2.052.621-.72,0-1.314-.126-1.782-.378-.468-.251-.702-.791-.702-1.62,0-1.296.297-2.366.891-3.213.594-.846,1.35-1.512,2.268-1.998s1.944-.827,3.078-1.025c1.134-.198,2.241-.298,3.321-.298,2.052,0,3.726.198,5.022.595s2.303.944,3.024,1.646c.72.702,1.206,1.539,1.458,2.511.251.973.378,2.017.378,3.133v13.716c0,1.044.081,1.845.243,2.402.162.559.414.964.756,1.216.342.252.783.404,1.323.459.54.054,1.188.081,1.944.081v1.35h-4.104c-.756,0-1.45-.027-2.079-.081-.63-.054-1.207-.207-1.728-.459-.522-.251-.963-.603-1.323-1.053-.36-.45-.648-1.089-.864-1.917-1.044,1.62-2.241,2.719-3.591,3.294s-2.925.864-4.725.864c-2.808,0-4.744-.684-5.805-2.053-1.062-1.367-1.593-3.294-1.593-5.777,0-2.269.575-3.978,1.728-5.13,1.152-1.152,2.862-1.998,5.13-2.538l3.24-.757ZM155.745,329.845c-.829.253-1.512.532-2.052.838s-.972.711-1.296,1.215c-.324.504-.559,1.143-.702,1.917-.145.774-.216,1.755-.216,2.942,0,.829.045,1.62.135,2.376.089.757.261,1.414.513,1.972.251.559.611,1.008,1.08,1.35.468.343,1.062.513,1.782.513,1.188,0,2.187-.323,2.997-.972s1.466-1.458,1.971-2.43c.504-.973.864-2.016,1.08-3.132.216-1.116.324-2.142.324-3.078v-5.185l-5.616,1.674Z" style="fill: #fff; stroke-width: 0px;"/>
  <path d="M214.865,316.885v1.351c-1.152,0-2.142.153-2.97.459-.829.306-1.512.702-2.052,1.188-.54.486-.963,1.045-1.269,1.675-.306.63-.531,1.287-.675,1.971-.181.756-.415,1.629-.702,2.619-.289.99-.612,1.998-.972,3.023-.36,1.026-.756,2.044-1.188,3.051-.432,1.009-.883,1.927-1.35,2.755,1.043,1.728,2.069,2.961,3.078,3.698,1.008.738,2.034,1.107,3.078,1.107.756,0,1.422-.171,1.998-.513.576-.342,1.053-.783,1.431-1.323s.666-1.143.864-1.81c.198-.665.297-1.34.297-2.024,0-1.044-.108-2.052-.324-3.024-.216-.972-.486-1.962-.81-2.97l1.404-.432c.324,1.188.63,2.376.918,3.563.288,1.188.432,2.412.432,3.672,0,1.225-.198,2.403-.594,3.537-.396,1.134-.964,2.133-1.701,2.997-.738.864-1.629,1.558-2.673,2.079-1.044.521-2.232.783-3.564.783-1.584,0-2.881-.378-3.888-1.134-1.008-.757-1.98-1.71-2.916-2.862-1.369,1.548-2.808,2.655-4.32,3.321-1.512.665-3.259.999-5.238.999-1.62,0-3.124-.289-4.509-.864-1.386-.575-2.583-1.377-3.591-2.403-1.008-1.025-1.792-2.241-2.349-3.645-.559-1.404-.837-2.934-.837-4.59,0-1.477.243-2.809.729-3.996.486-1.188,1.142-2.269,1.971-3.24.828-.972,1.764-1.863,2.808-2.673,1.044-.811,2.142-1.594,3.294-2.35-.576-1.115-1.026-2.097-1.35-2.942-.324-.846-.576-1.584-.756-2.214-.181-.63-.297-1.179-.351-1.647-.054-.468-.081-.899-.081-1.296,0-.756.189-1.584.567-2.484.378-.899.936-1.736,1.674-2.511.737-.773,1.647-1.422,2.727-1.944,1.08-.521,2.322-.782,3.726-.782,1.728,0,3.123.306,4.185.918,1.061.612,1.593,1.692,1.593,3.239,0,1.009-.225,1.954-.675,2.835-.451.883-1.008,1.711-1.674,2.484-.667.774-1.404,1.504-2.214,2.188s-1.558,1.332-2.241,1.943c1.476,2.484,2.934,4.968,4.374,7.452,1.439,2.484,2.988,4.968,4.644,7.452.792-1.404,1.476-2.961,2.052-4.671.575-1.71.864-3.375.864-4.995,0-1.115-.162-2.033-.486-2.754-.324-.72-.783-1.296-1.377-1.729-.594-.432-1.296-.737-2.106-.918-.81-.18-1.72-.27-2.727-.27v-1.351h15.822ZM184.409,329.684c0,.937.261,2.124.783,3.563.521,1.44,1.233,2.835,2.133,4.186.899,1.35,1.935,2.511,3.105,3.482,1.169.972,2.385,1.458,3.645,1.458,1.152,0,2.223-.306,3.213-.918.99-.611,1.809-1.404,2.457-2.376-1.8-2.844-3.573-5.661-5.319-8.451-1.747-2.789-3.429-5.643-5.049-8.559-1.44.864-2.628,1.908-3.564,3.132-.937,1.225-1.404,2.719-1.404,4.482ZM190.349,310.243c0,.288.027.604.081.945.054.342.18.774.378,1.296.197.522.477,1.18.837,1.971.359.792.864,1.801,1.512,3.024.684-.396,1.305-.909,1.863-1.539.558-.63,1.034-1.287,1.431-1.972.396-.683.702-1.367.918-2.052.216-.684.324-1.277.324-1.782,0-1.115-.289-2.016-.864-2.699-.577-.684-1.369-1.026-2.376-1.026s-1.944.307-2.808.918c-.864.612-1.296,1.585-1.296,2.916Z" style="fill: #fff; stroke-width: 0px;"/>
  <path d="M248.064,325.471h16.038v1.351h-4.536v13.986c-2.412,1.26-4.852,2.214-7.317,2.861-2.466.648-4.923.973-7.371.973-2.916,0-5.508-.496-7.776-1.485-2.268-.99-4.167-2.376-5.697-4.158-1.531-1.782-2.692-3.888-3.483-6.318-.792-2.43-1.188-5.103-1.188-8.019,0-2.88.432-5.535,1.296-7.965.864-2.43,2.114-4.536,3.753-6.318,1.638-1.782,3.626-3.167,5.967-4.158,2.34-.989,4.968-1.484,7.884-1.484,2.16,0,4.328.288,6.507.864,2.178.576,4.257,1.332,6.237,2.268v10.8h-1.296c-.216-1.8-.675-3.446-1.377-4.94s-1.584-2.781-2.646-3.861c-1.062-1.08-2.287-1.926-3.672-2.538-1.386-.611-2.872-.918-4.455-.918-1.764,0-3.267.324-4.509.972-1.242.648-2.277,1.494-3.105,2.538-.829,1.045-1.477,2.224-1.944,3.537-.468,1.314-.81,2.655-1.026,4.023s-.351,2.682-.405,3.941c-.054,1.261-.081,2.341-.081,3.24,0,1.908.099,3.934.297,6.075.197,2.143.675,4.122,1.431,5.939.756,1.818,1.871,3.321,3.348,4.51,1.476,1.188,3.51,1.781,6.102,1.781,2.627,0,4.733-.558,6.318-1.674,1.584-1.115,2.376-2.808,2.376-5.076v-9.396h-5.67v-1.351Z" style="fill: #fff; stroke-width: 0px;"/>
  <path d="M268.422,330.763c0-1.367.207-2.861.621-4.481.413-1.62,1.107-3.123,2.079-4.509s2.259-2.547,3.861-3.483c1.602-.936,3.608-1.404,6.021-1.404s4.419.469,6.021,1.404c1.602.937,2.889,2.098,3.86,3.483.973,1.386,1.665,2.889,2.079,4.509s.621,3.114.621,4.481-.207,2.862-.621,4.482-1.106,3.124-2.079,4.509c-.972,1.387-2.259,2.548-3.86,3.483-1.603.936-3.609,1.404-6.021,1.404s-4.419-.469-6.021-1.404c-1.603-.936-2.89-2.097-3.861-3.483-.972-1.385-1.666-2.889-2.079-4.509-.414-1.62-.621-3.113-.621-4.482ZM274.579,330.763c0,1.404.035,2.854.108,4.348.071,1.494.305,2.844.701,4.05.396,1.207,1.035,2.196,1.917,2.97.882.774,2.115,1.161,3.699,1.161s2.809-.387,3.672-1.161c.864-.773,1.503-1.763,1.917-2.97.414-1.206.657-2.556.729-4.05.071-1.493.107-2.943.107-4.348s-.036-2.853-.107-4.347c-.072-1.493-.315-2.844-.729-4.05s-1.053-2.195-1.917-2.97c-.863-.774-2.088-1.161-3.672-1.161s-2.817.387-3.699,1.161-1.521,1.764-1.917,2.97-.63,2.557-.701,4.05c-.073,1.494-.108,2.943-.108,4.347Z" style="fill: #fff; stroke-width: 0px;"/>
  <path d="M297.636,305.383h10.152v37.261h4.644v1.35h-14.796v-1.35h4.644v-35.91h-4.644v-1.351Z" style="fill: #fff; stroke-width: 0px;"/>
  <path d="M314.591,318.883v-1.35h4.536v-5.4c0-1.476.252-2.69.756-3.645.504-.953,1.161-1.71,1.972-2.269.81-.558,1.728-.944,2.754-1.16,1.025-.217,2.043-.324,3.051-.324.791,0,1.665.072,2.619.216.953.145,1.826.414,2.619.81.791.397,1.458.937,1.998,1.62.54.685.81,1.549.81,2.593,0,.72-.207,1.277-.621,1.674s-.981.594-1.701.594c-1.692,0-2.538-.846-2.538-2.538,0-1.151-.216-2.043-.647-2.673s-1.17-.945-2.214-.945c-.721,0-1.306.127-1.755.378-.451.253-.793.621-1.026,1.107-.234.486-.388,1.062-.459,1.728-.072.667-.108,1.396-.108,2.188v6.048h5.185v1.35h-5.185v23.761h4.374v1.35h-14.418v-1.35h4.536v-23.761h-4.536Z" style="fill: #fff; stroke-width: 0px;"/>
  <path d="M343.459,306.733h-5.076v-1.351h15.822c1.728,0,3.302.117,4.725.352,1.422.234,2.654.684,3.699,1.35,1.043.667,1.854,1.611,2.43,2.835.575,1.225.864,2.809.864,4.752,0,1.585-.234,2.898-.702,3.942-.469,1.045-1.116,1.89-1.944,2.538-.828.647-1.809,1.152-2.942,1.512-1.135.36-2.35.612-3.646.756v.108c2.016.252,3.699.54,5.049.864,1.351.323,2.448.855,3.294,1.593.846.738,1.467,1.746,1.863,3.023.396,1.278.648,2.979.756,5.104.072,1.44.162,2.691.271,3.753.107,1.062.305,1.944.594,2.646.288.702.675,1.234,1.161,1.594.486.36,1.143.54,1.971.54h1.351v1.35h-3.942c-1.656,0-2.952-.171-3.888-.513-.937-.342-1.656-.909-2.16-1.701-.505-.792-.855-1.836-1.053-3.132-.199-1.296-.352-2.897-.459-4.807-.108-1.763-.289-3.239-.54-4.428-.253-1.188-.685-2.142-1.297-2.862-.612-.72-1.439-1.241-2.483-1.565-1.045-.324-2.43-.486-4.158-.486h-3.402v18.145h4.86v1.35h-16.092v-1.35h5.076v-35.91ZM349.615,322.825h3.78c1.188,0,2.195-.216,3.024-.648.827-.432,1.484-1.017,1.971-1.755.486-.737.837-1.593,1.053-2.564.216-.973.324-2.016.324-3.132,0-2.52-.54-4.482-1.62-5.887-1.08-1.403-2.988-2.105-5.724-2.105h-2.809v16.092Z" style="fill: #fff; stroke-width: 0px;"/>
  <path d="M380.611,329.089v.433c0,1.908.09,3.672.27,5.292s.549,3.042,1.107,4.266c.558,1.225,1.368,2.179,2.43,2.862s2.457,1.025,4.186,1.025c1.224,0,2.304-.18,3.24-.54.936-.359,1.755-.845,2.457-1.458.701-.611,1.304-1.34,1.809-2.187.504-.846.936-1.755,1.296-2.728l1.188.433c-.577,1.584-1.242,2.898-1.998,3.941-.757,1.045-1.62,1.873-2.593,2.484-.972.612-2.07,1.053-3.294,1.323-1.224.27-2.574.405-4.05.405-2.017,0-3.789-.37-5.319-1.107s-2.808-1.736-3.834-2.997c-1.025-1.26-1.791-2.727-2.295-4.401-.504-1.674-.756-3.464-.756-5.373,0-1.836.288-3.591.864-5.265.575-1.674,1.404-3.149,2.484-4.428,1.08-1.277,2.394-2.295,3.941-3.051,1.548-.757,3.312-1.135,5.292-1.135,1.729,0,3.303.298,4.726.892,1.421.594,2.646,1.431,3.672,2.511,1.025,1.08,1.817,2.367,2.376,3.861.558,1.494.837,3.141.837,4.94h-18.036ZM392.167,327.415c0-.972-.036-1.998-.107-3.078-.073-1.08-.297-2.069-.675-2.97-.379-.899-.955-1.647-1.729-2.241-.774-.594-1.846-.891-3.213-.891-1.152,0-2.106.324-2.862.972-.756.648-1.35,1.44-1.782,2.376-.432.937-.738,1.936-.918,2.997-.18,1.062-.27,2.008-.27,2.835h11.556Z" style="fill: #fff; stroke-width: 0px;"/>
  <path d="M421.975,325.579h-1.296c-.181-.899-.405-1.772-.675-2.619-.271-.846-.667-1.593-1.188-2.241-.522-.647-1.18-1.169-1.971-1.565-.793-.396-1.782-.594-2.971-.594-1.224,0-2.276.297-3.158.891-.883.594-1.323,1.539-1.323,2.835,0,1.116.368,1.98,1.106,2.592.738.612,1.647,1.144,2.728,1.593,1.08.451,2.268.874,3.563,1.27,1.297.396,2.484.927,3.564,1.593,1.08.667,1.988,1.558,2.727,2.673.738,1.116,1.107,2.592,1.107,4.429,0,1.368-.307,2.564-.918,3.591-.612,1.025-1.404,1.881-2.376,2.564-.972.685-2.07,1.197-3.294,1.539-1.225.342-2.43.514-3.618.514-1.62,0-3.186-.145-4.698-.433-1.512-.287-3.023-.702-4.536-1.242v-8.802h1.62c0,1.261.162,2.439.486,3.537.324,1.099.801,2.062,1.431,2.889.63.829,1.422,1.485,2.376,1.972.954.485,2.097.729,3.43.729.684,0,1.377-.099,2.079-.297.701-.197,1.331-.494,1.89-.891.558-.396,1.017-.892,1.377-1.485.359-.594.54-1.287.54-2.079,0-1.188-.36-2.124-1.08-2.808-.721-.684-1.611-1.277-2.673-1.782-1.062-.504-2.224-.963-3.483-1.377-1.261-.413-2.421-.927-3.482-1.539-1.062-.611-1.953-1.395-2.673-2.349-.721-.954-1.08-2.205-1.08-3.753,0-1.297.233-2.448.701-3.456s1.099-1.854,1.891-2.538c.791-.684,1.709-1.196,2.754-1.539,1.044-.342,2.142-.514,3.294-.514,1.439,0,2.789.181,4.05.54,1.26.36,2.52.738,3.78,1.135v7.02Z" style="fill: #fff; stroke-width: 0px;"/>
  <path d="M429.481,330.763c0-1.367.207-2.861.621-4.481.413-1.62,1.106-3.123,2.079-4.509.972-1.386,2.259-2.547,3.86-3.483,1.602-.936,3.609-1.404,6.021-1.404s4.419.469,6.021,1.404c1.602.937,2.89,2.098,3.861,3.483s1.665,2.889,2.079,4.509c.413,1.62.621,3.114.621,4.481s-.208,2.862-.621,4.482c-.414,1.62-1.107,3.124-2.079,4.509-.972,1.387-2.26,2.548-3.861,3.483s-3.609,1.404-6.021,1.404-4.42-.469-6.021-1.404-2.889-2.097-3.86-3.483c-.973-1.385-1.666-2.889-2.079-4.509-.414-1.62-.621-3.113-.621-4.482ZM435.637,330.763c0,1.404.035,2.854.107,4.348.072,1.494.306,2.844.702,4.05.396,1.207,1.034,2.196,1.917,2.97.882.774,2.114,1.161,3.699,1.161s2.808-.387,3.672-1.161c.864-.773,1.503-1.763,1.917-2.97.413-1.206.656-2.556.729-4.05.071-1.493.107-2.943.107-4.348s-.036-2.853-.107-4.347c-.073-1.493-.316-2.844-.729-4.05-.414-1.206-1.053-2.195-1.917-2.97s-2.088-1.161-3.672-1.161-2.817.387-3.699,1.161c-.883.774-1.521,1.764-1.917,2.97-.396,1.206-.63,2.557-.702,4.05-.072,1.494-.107,2.943-.107,4.347Z" style="fill: #fff; stroke-width: 0px;"/>
  <path d="M463.122,318.883h-4.644v-1.35h10.152v6.21h.107c.288-.791.648-1.593,1.08-2.403.433-.81.963-1.547,1.593-2.214.63-.666,1.341-1.205,2.134-1.62.791-.413,1.709-.621,2.754-.621,1.62,0,2.843.469,3.672,1.404.827.937,1.242,2.196,1.242,3.78,0,1.08-.226,1.953-.676,2.619s-1.16.999-2.133.999c-.721,0-1.35-.252-1.89-.756s-.811-1.17-.811-1.998c0-.396.045-.864.136-1.404.089-.54.135-.99.135-1.351,0-.396-.127-.72-.378-.972-.252-.251-.576-.378-.972-.378-.721,0-1.432.351-2.134,1.053s-1.341,1.62-1.917,2.754c-.576,1.135-1.044,2.422-1.403,3.861-.36,1.44-.54,2.881-.54,4.32v11.826h4.481v1.35h-14.634v-1.35h4.644v-23.761Z" style="fill: #fff; stroke-width: 0px;"/>
  <path d="M482.562,317.533h3.726v-7.182h5.508v7.182h5.994v1.35h-5.994v19.116c0,1.62.197,2.809.594,3.564s1.152,1.134,2.269,1.134c1.044,0,1.826-.324,2.349-.972.521-.648.999-1.404,1.432-2.269l1.241.54-.485.972c-.54.973-1.323,1.828-2.35,2.565-1.025.737-2.511,1.107-4.455,1.107-1.403,0-2.511-.181-3.32-.54-.811-.359-1.423-.855-1.836-1.485-.414-.63-.675-1.341-.783-2.133s-.162-1.62-.162-2.484v-19.116h-3.726v-1.35Z" style="fill: #fff; stroke-width: 0px;"/>
  <path d="M5.419,224.511H.235v-2.16h24.264v2.16h-6.912l10.656,32.977h.144l10.584-32.977h-6.912v-2.16h26.568v2.16h-6.912l10.656,32.977h.144l10.584-32.977h-6.912v-2.16h14.112v2.16h-4.968l-16.272,50.185h-2.592l-16.056-48.456h-.144l-15.12,48.456h-2.664l-17.064-50.185Z" style="fill: #fff; stroke-width: 0px;"/>
  <path d="M91.459,254.391v3.097c0,1.584.108,3.216.324,4.896.216,1.681.648,3.204,1.296,4.572.648,1.368,1.584,2.496,2.808,3.384,1.224.889,2.868,1.332,4.932,1.332,3.024,0,5.519-.792,7.488-2.376,1.968-1.584,3.552-3.672,4.752-6.264l1.944.864c-1.44,3.6-3.541,6.3-6.3,8.1-2.761,1.8-6.012,2.7-9.756,2.7-2.784,0-5.328-.433-7.632-1.296-2.304-.864-4.273-2.1-5.904-3.708-1.632-1.608-2.905-3.552-3.816-5.832-.912-2.279-1.368-4.836-1.368-7.668,0-2.64.456-5.1,1.368-7.38.911-2.279,2.196-4.236,3.852-5.868,1.656-1.632,3.636-2.916,5.94-3.853,2.304-.936,4.824-1.403,7.56-1.403,2.351,0,4.536.372,6.552,1.115,2.016.745,3.78,1.825,5.292,3.24,1.512,1.416,2.7,3.168,3.564,5.256.864,2.088,1.296,4.453,1.296,7.092h-24.192ZM104.419,252.231v-3.312c0-1.008-.084-2.052-.252-3.132-.169-1.08-.468-2.063-.9-2.952-.432-.888-1.033-1.607-1.8-2.16-.769-.551-1.753-.828-2.952-.828-1.681,0-2.977.433-3.888,1.296-.913.864-1.597,1.921-2.052,3.169-.457,1.248-.745,2.592-.864,4.031-.121,1.44-.205,2.736-.252,3.889h12.96Z" style="fill: #fff; stroke-width: 0px;"/>
  <path d="M119.97,271.671h5.184v-30.96h-5.184v-2.16h4.464c3.695,0,7.391-.144,11.088-.432v33.552h5.184v2.16h-20.736v-2.16ZM124.723,227.104c0-1.536.551-2.855,1.656-3.961,1.104-1.104,2.423-1.655,3.96-1.655s2.855.552,3.96,1.655c1.104,1.105,1.656,2.425,1.656,3.961s-.553,2.855-1.656,3.96c-1.104,1.104-2.424,1.655-3.96,1.655s-2.856-.551-3.96-1.655c-1.104-1.104-1.656-2.424-1.656-3.96Z" style="fill: #fff; stroke-width: 0px;"/>
  <path d="M144.018,271.671h5.184v-30.96h-5.184v-2.16h4.464c3.695,0,7.391-.144,11.088-.432v5.472h.144c1.199-2.16,2.844-3.683,4.932-4.571,2.088-.888,4.259-1.332,6.516-1.332,3.071,0,5.616.492,7.632,1.476,2.016.984,3.431,2.771,4.248,5.364h.144c.576-1.296,1.319-2.376,2.232-3.24.911-.864,1.908-1.571,2.988-2.124,1.08-.552,2.196-.936,3.348-1.152,1.152-.216,2.279-.323,3.384-.323,1.824,0,3.492.18,5.004.54,1.512.359,2.819.996,3.924,1.907,1.104.913,1.955,2.137,2.556,3.672.6,1.537.9,3.456.9,5.761v22.104h5.184v2.16h-20.736v-2.16h5.184v-23.976c0-1.44-.156-2.592-.468-3.456-.313-.864-.72-1.523-1.224-1.98-.504-.455-1.105-.756-1.8-.899-.696-.145-1.404-.217-2.124-.217-2.304,0-4.212.949-5.724,2.845-1.512,1.896-2.268,4.788-2.268,8.676v19.008h5.184v2.16h-20.736v-2.16h5.184v-23.976c0-1.44-.156-2.592-.468-3.456-.313-.864-.72-1.523-1.224-1.98-.504-.455-1.105-.756-1.8-.899-.697-.145-1.404-.217-2.124-.217-2.304,0-4.212.949-5.724,2.845-1.512,1.896-2.268,4.788-2.268,8.676v19.008h5.184v2.16h-20.736v-2.16Z" style="fill: #fff; stroke-width: 0px;"/>
  <path d="M250.578,265.623c0,1.152.06,2.112.18,2.88.119.769.36,1.393.72,1.872.36.48.875.816,1.548,1.008.671.192,1.559.288,2.664.288v2.16c-1.345.096-2.689.191-4.032.288-1.344.096-2.688.144-4.032.144-2.16,0-3.816-.336-4.968-1.008-1.152-.672-1.896-2.063-2.232-4.176h-.144c-.385,1.152-.997,2.088-1.836,2.808-.84.721-1.8,1.285-2.88,1.692s-2.221.695-3.42.864c-1.201.167-2.376.252-3.528.252-3.648,0-6.396-1.032-8.244-3.097-1.849-2.062-2.772-4.848-2.772-8.352,0-2.16.396-3.876,1.188-5.148.792-1.271,1.872-2.268,3.24-2.987,1.368-.721,2.988-1.284,4.86-1.692,1.872-.407,3.912-.828,6.12-1.26.432-.096.959-.228,1.584-.396.624-.167,1.271-.348,1.944-.54.672-.19,1.332-.396,1.98-.611.648-.216,1.212-.42,1.692-.612v-4.464c0-.815-.084-1.571-.252-2.269-.169-.694-.48-1.296-.936-1.8-.457-.504-1.105-.899-1.944-1.188-.84-.288-1.908-.433-3.204-.433-1.633,0-2.821.241-3.564.721-.745.48-1.26,1.068-1.548,1.764-.288.696-.444,1.465-.468,2.304-.025.841-.133,1.609-.324,2.305-.192.696-.564,1.284-1.116,1.764-.553.48-1.501.72-2.844.72-1.104,0-2.041-.263-2.808-.792-.768-.527-1.152-1.559-1.152-3.096,0-1.584.468-2.88,1.404-3.888.936-1.009,2.1-1.801,3.492-2.376,1.392-.576,2.88-.983,4.464-1.225,1.584-.239,3.024-.359,4.32-.359,2.399,0,4.631.107,6.696.323,2.063.217,3.852.696,5.364,1.44,1.512.745,2.688,1.836,3.528,3.276.839,1.439,1.26,3.384,1.26,5.831v17.064ZM240.21,252.159l-6.192,2.231c-.96.337-1.825.745-2.592,1.225-.769.48-1.404,1.092-1.908,1.836-.504.745-.889,1.668-1.152,2.771-.264,1.105-.396,2.474-.396,4.104,0,.912.083,1.789.252,2.628.168.841.468,1.572.9,2.196.432.624.983,1.128,1.656,1.512.671.385,1.512.576,2.52.576,1.728,0,3.06-.479,3.996-1.44.936-.959,1.62-2.111,2.052-3.456.432-1.343.684-2.747.756-4.212.072-1.464.108-2.724.108-3.78v-6.191Z" style="fill: #fff; stroke-width: 0px;"/>
  <path d="M258.713,271.671h5.184v-30.96h-5.184v-2.16h4.464c3.695,0,7.391-.144,11.088-.432v5.832h.144c.722-1.824,1.916-3.323,3.58-4.5,1.663-1.176,3.508-1.764,5.533-1.764,2.314,0,4.05.696,5.208,2.088,1.156,1.393,1.736,3.12,1.736,5.184,0,1.488-.373,2.664-1.117,3.528-.744.863-1.933,1.296-3.563,1.296-1.393,0-2.473-.335-3.24-1.008-.768-.672-1.152-1.608-1.152-2.809,0-.527.011-.947.036-1.26.023-.312.036-.576.036-.792s.011-.42.036-.612c.024-.191.036-.432.036-.72,0-.96-.461-1.44-1.381-1.44-1.066,0-1.976.54-2.727,1.62s-1.358,2.401-1.818,3.96c-.461,1.561-.8,3.229-1.019,5.005-.218,1.776-.327,3.36-.327,4.752v15.191h5.184v2.16h-20.736v-2.16Z" style="fill: #fff; stroke-width: 0px;"/>
  <path d="M304.866,254.391v3.097c0,1.584.108,3.216.324,4.896.216,1.681.648,3.204,1.296,4.572.648,1.368,1.584,2.496,2.809,3.384,1.224.889,2.867,1.332,4.932,1.332,3.024,0,5.52-.792,7.488-2.376,1.968-1.584,3.552-3.672,4.752-6.264l1.943.864c-1.439,3.6-3.54,6.3-6.3,8.1-2.761,1.8-6.012,2.7-9.756,2.7-2.784,0-5.328-.433-7.632-1.296-2.304-.864-4.272-2.1-5.904-3.708s-2.904-3.552-3.815-5.832c-.913-2.279-1.368-4.836-1.368-7.668,0-2.64.455-5.1,1.368-7.38.911-2.279,2.195-4.236,3.852-5.868s3.636-2.916,5.94-3.853c2.304-.936,4.823-1.403,7.56-1.403,2.352,0,4.536.372,6.552,1.115,2.017.745,3.78,1.825,5.292,3.24,1.513,1.416,2.7,3.168,3.564,5.256s1.296,4.453,1.296,7.092h-24.192ZM317.826,252.231v-3.312c0-1.008-.084-2.052-.252-3.132s-.468-2.063-.899-2.952c-.433-.888-1.033-1.607-1.8-2.16-.769-.551-1.753-.828-2.952-.828-1.681,0-2.978.433-3.889,1.296-.912.864-1.596,1.921-2.052,3.169-.457,1.248-.745,2.592-.864,4.031-.12,1.44-.204,2.736-.252,3.889h12.96Z" style="fill: #fff; stroke-width: 0px;"/>
  <path d="M333.376,271.671h5.184v-30.96h-5.184v-2.16h4.464c3.695,0,7.392-.144,11.088-.432v5.832h.144c.723-1.824,1.916-3.323,3.58-4.5,1.663-1.176,3.508-1.764,5.533-1.764,2.313,0,4.05.696,5.207,2.088,1.157,1.393,1.736,3.12,1.736,5.184,0,1.488-.373,2.664-1.116,3.528-.745.863-1.933,1.296-3.564,1.296-1.393,0-2.473-.335-3.239-1.008-.769-.672-1.152-1.608-1.152-2.809,0-.527.012-.947.036-1.26.023-.312.036-.576.036-.792s.011-.42.036-.612c.023-.191.036-.432.036-.72,0-.96-.462-1.44-1.382-1.44-1.066,0-1.976.54-2.728,1.62-.751,1.08-1.357,2.401-1.817,3.96-.462,1.561-.8,3.229-1.019,5.005-.218,1.776-.327,3.36-.327,4.752v15.191h5.184v2.16h-20.735v-2.16Z" style="fill: #fff; stroke-width: 0px;"/>
  <path d="M387.232,271.671h6.912v-47.16h-6.912v-2.16h25.056v2.16h-6.912v47.16h8.424c2.017,0,4.068-.228,6.156-.684s3.996-1.284,5.725-2.484c1.728-1.199,3.203-2.819,4.428-4.86,1.224-2.039,2.004-4.644,2.34-7.812h2.16v18h-47.376v-2.16Z" style="fill: #fff; stroke-width: 0px;"/>
  <path d="M473.272,265.623c0,1.152.06,2.112.181,2.88.119.769.359,1.393.72,1.872.359.48.875.816,1.548,1.008.672.192,1.56.288,2.664.288v2.16c-1.345.096-2.688.191-4.032.288-1.345.096-2.688.144-4.032.144-2.16,0-3.815-.336-4.968-1.008s-1.896-2.063-2.231-4.176h-.145c-.385,1.152-.997,2.088-1.836,2.808-.841.721-1.8,1.285-2.88,1.692s-2.221.695-3.42.864c-1.2.167-2.376.252-3.528.252-3.648,0-6.396-1.032-8.244-3.097-1.848-2.062-2.771-4.848-2.771-8.352,0-2.16.396-3.876,1.188-5.148.792-1.271,1.872-2.268,3.24-2.987,1.368-.721,2.988-1.284,4.86-1.692,1.872-.407,3.911-.828,6.12-1.26.432-.096.959-.228,1.584-.396.623-.167,1.271-.348,1.943-.54.672-.19,1.332-.396,1.98-.611.647-.216,1.211-.42,1.691-.612v-4.464c0-.815-.084-1.571-.252-2.269-.168-.694-.48-1.296-.936-1.8-.457-.504-1.104-.899-1.944-1.188s-1.908-.433-3.204-.433c-1.632,0-2.82.241-3.563.721-.745.48-1.26,1.068-1.548,1.764-.288.696-.444,1.465-.469,2.304-.024.841-.133,1.609-.323,2.305-.192.696-.565,1.284-1.116,1.764-.553.48-1.501.72-2.844.72-1.105,0-2.041-.263-2.809-.792-.769-.527-1.151-1.559-1.151-3.096,0-1.584.468-2.88,1.403-3.888.937-1.009,2.1-1.801,3.492-2.376,1.392-.576,2.88-.983,4.464-1.225,1.584-.239,3.024-.359,4.32-.359,2.399,0,4.632.107,6.696.323,2.062.217,3.852.696,5.363,1.44,1.513.745,2.688,1.836,3.528,3.276.839,1.439,1.26,3.384,1.26,5.831v17.064ZM462.904,252.159l-6.191,2.231c-.961.337-1.825.745-2.592,1.225-.769.48-1.404,1.092-1.908,1.836-.504.745-.889,1.668-1.152,2.771-.265,1.105-.396,2.474-.396,4.104,0,.912.083,1.789.252,2.628.167.841.468,1.572.899,2.196.433.624.983,1.128,1.656,1.512.672.385,1.512.576,2.52.576,1.729,0,3.061-.479,3.996-1.44.937-.959,1.62-2.111,2.053-3.456.432-1.343.684-2.747.756-4.212.071-1.464.107-2.724.107-3.78v-6.191Z" style="fill: #fff; stroke-width: 0px;"/>
  <path d="M481.408,271.671h5.184v-30.96h-5.184v-2.16h4.464c3.695,0,7.392-.144,11.088-.432v5.328h.144c1.248-1.92,2.832-3.359,4.752-4.32,1.92-.96,4.151-1.439,6.696-1.439,3.647,0,6.624.984,8.928,2.951,2.305,1.969,3.456,4.944,3.456,8.929v22.104h5.185v2.16h-20.736v-2.16h5.185v-23.544c0-1.392-.157-2.544-.469-3.456-.312-.911-.72-1.631-1.224-2.16-.504-.527-1.104-.888-1.8-1.08-.696-.19-1.404-.288-2.124-.288-1.008,0-1.992.241-2.952.721-.961.48-1.812,1.151-2.556,2.016-.745.864-1.345,1.908-1.801,3.132-.456,1.225-.684,2.581-.684,4.068v20.592h5.184v2.16h-20.735v-2.16Z" style="fill: #fff; stroke-width: 0px;"/>
  <path d="M557.294,269.655h-.144c-.673,1.057-1.416,1.92-2.232,2.592-.816.673-1.681,1.188-2.592,1.548-.912.36-1.86.6-2.844.72-.984.12-1.956.181-2.916.181-2.736,0-5.088-.493-7.056-1.477-1.969-.983-3.577-2.327-4.824-4.031-1.249-1.704-2.173-3.673-2.772-5.904-.601-2.232-.899-4.596-.899-7.092,0-2.448.348-4.788,1.044-7.021.695-2.231,1.716-4.199,3.06-5.904,1.344-1.703,3.024-3.06,5.04-4.067,2.017-1.008,4.344-1.512,6.984-1.512,2.304,0,4.344.408,6.12,1.224,1.775.816,3.071,2.137,3.888,3.96h.144v-18.36h-5.184v-2.16h4.464c3.696,0,7.392-.144,11.088-.432v49.752h5.185v2.16c-1.776,0-3.384.012-4.824.036-1.44.023-2.772.06-3.996.107s-2.389.096-3.492.145c-1.104.047-2.185.096-3.24.144v-4.607ZM557.511,256.191c0-1.44-.062-3.061-.181-4.86-.12-1.8-.456-3.492-1.008-5.076s-1.368-2.903-2.448-3.96c-1.08-1.055-2.556-1.584-4.428-1.584-1.776,0-3.168.408-4.176,1.224-1.008.817-1.753,1.921-2.232,3.312-.48,1.393-.78,3.024-.899,4.896-.121,1.872-.181,3.889-.181,6.049,0,5.232.552,9.12,1.656,11.664,1.104,2.544,3.048,3.815,5.832,3.815,1.872,0,3.348-.479,4.428-1.439s1.896-2.196,2.448-3.708c.552-1.513.888-3.18,1.008-5.004.119-1.824.181-3.601.181-5.328Z" style="fill: #fff; stroke-width: 0px;"/>
</svg>